<svg xmlns="http://www.w3.org/2000/svg" width="80" height="80" x="0" y="0" viewBox="0 0 64 64" style="enable-background:new 0 0 64 64;fill:#000"><linearGradient id="SVGID_1__44004" x1="41" x2="41" y1="25.5" y2="36.571" gradientUnits="userSpaceOnUse" spreadMethod="reflect"><stop offset="0" style="stop-color:#6dc7ff"/><stop offset="1" style="stop-color:#e6abff"/></linearGradient><path style="fill:url(#SVGID_1__44004)" d="M38,36h6c0.552,0,1-0.448,1-1v-8c0-0.552-0.448-1-1-1h-6c-0.552,0-1,0.448-1,1v8 C37,35.552,37.448,36,38,36z"/><linearGradient id="SVGID_2__44004" x1="32" x2="32" y1="5.75" y2="57.868" gradientUnits="userSpaceOnUse" spreadMethod="reflect"><stop offset="0" style="stop-color:#1a6dff"/><stop offset="1" style="stop-color:#c822ff"/></linearGradient><path style="fill:url(#SVGID_2__44004)" d="M49,10h-2c0-1.103-0.897-2-2-2h-8c0-1.103-0.897-2-2-2h-6c-1.103,0-2,0.897-2,2h-8 c-1.103,0-2,0.897-2,2h-2c-1.103,0-2,0.897-2,2v44c0,1.103,0.897,2,2,2h34c1.103,0,2-0.897,2-2V12C51,10.897,50.103,10,49,10z M29,8 h6v5c0,1.654-1.346,3-3,3s-3-1.346-3-3V8z M15,12h12v1c0,2.757,2.243,5,5,5s5-2.243,5-5v-1h12v32H39c-1.103,0-2,0.897-2,2v10H15V12z M39,56V46h10v10H39z"/><linearGradient id="SVGID_3__44004" x1="32" x2="32" y1="5.75" y2="57.868" gradientUnits="userSpaceOnUse" spreadMethod="reflect"><stop offset="0" style="stop-color:#1a6dff"/><stop offset="1" style="stop-color:#c822ff"/></linearGradient><rect style="fill:url(#SVGID_3__44004)" width="26" height="2" x="19" y="22"/><linearGradient id="SVGID_4__44004" x1="26" x2="26" y1="5.75" y2="57.868" gradientUnits="userSpaceOnUse" spreadMethod="reflect"><stop offset="0" style="stop-color:#1a6dff"/><stop offset="1" style="stop-color:#c822ff"/></linearGradient><rect style="fill:url(#SVGID_4__44004)" width="14" height="2" x="19" y="26"/><linearGradient id="SVGID_5__44004" x1="26" x2="26" y1="5.75" y2="57.868" gradientUnits="userSpaceOnUse" spreadMethod="reflect"><stop offset="0" style="stop-color:#1a6dff"/><stop offset="1" style="stop-color:#c822ff"/></linearGradient><rect style="fill:url(#SVGID_5__44004)" width="14" height="2" x="19" y="30"/><linearGradient id="SVGID_6__44004" x1="26" x2="26" y1="5.75" y2="57.868" gradientUnits="userSpaceOnUse" spreadMethod="reflect"><stop offset="0" style="stop-color:#1a6dff"/><stop offset="1" style="stop-color:#c822ff"/></linearGradient><rect style="fill:url(#SVGID_6__44004)" width="14" height="2" x="19" y="34"/><linearGradient id="SVGID_7__44004" x1="41" x2="41" y1="5.75" y2="57.868" gradientUnits="userSpaceOnUse" spreadMethod="reflect"><stop offset="0" style="stop-color:#1a6dff"/><stop offset="1" style="stop-color:#c822ff"/></linearGradient><rect style="fill:url(#SVGID_7__44004)" width="8" height="2" x="37" y="38"/><linearGradient id="SVGID_8__44004" x1="20" x2="20" y1="5.75" y2="57.868" gradientUnits="userSpaceOnUse" spreadMethod="reflect"><stop offset="0" style="stop-color:#1a6dff"/><stop offset="1" style="stop-color:#c822ff"/></linearGradient><rect style="fill:url(#SVGID_8__44004)" width="2" height="4" x="19" y="48"/><linearGradient id="SVGID_9__44004" x1="24" x2="24" y1="5.75" y2="57.868" gradientUnits="userSpaceOnUse" spreadMethod="reflect"><stop offset="0" style="stop-color:#1a6dff"/><stop offset="1" style="stop-color:#c822ff"/></linearGradient><rect style="fill:url(#SVGID_9__44004)" width="2" height="4" x="23" y="48"/><linearGradient id="SVGID_10__44004" x1="28" x2="28" y1="5.75" y2="57.868" gradientUnits="userSpaceOnUse" spreadMethod="reflect"><stop offset="0" style="stop-color:#1a6dff"/><stop offset="1" style="stop-color:#c822ff"/></linearGradient><rect style="fill:url(#SVGID_10__44004)" width="2" height="4" x="27" y="48"/><linearGradient id="SVGID_11__44004" x1="32" x2="32" y1="5.75" y2="57.868" gradientUnits="userSpaceOnUse" spreadMethod="reflect"><stop offset="0" style="stop-color:#1a6dff"/><stop offset="1" style="stop-color:#c822ff"/></linearGradient><rect style="fill:url(#SVGID_11__44004)" width="2" height="4" x="31" y="48"/><linearGradient id="SVGID_12__44004" x1="43" x2="43" y1="5.75" y2="57.868" gradientUnits="userSpaceOnUse" spreadMethod="reflect"><stop offset="0" style="stop-color:#1a6dff"/><stop offset="1" style="stop-color:#c822ff"/></linearGradient><path style="fill:url(#SVGID_12__44004)" d="M41,50v2h2v-2h2v-2h-2C41.897,48,41,48.897,41,50z"/><linearGradient id="SVGID_13__44004" x1="26" x2="26" y1="5.75" y2="57.868" gradientUnits="userSpaceOnUse" spreadMethod="reflect"><stop offset="0" style="stop-color:#1a6dff"/><stop offset="1" style="stop-color:#c822ff"/></linearGradient><rect style="fill:url(#SVGID_13__44004)" width="14" height="2" x="19" y="38"/></svg>